<?xml version="1.0" encoding="utf-8"?>
<!-- Generator: Adobe Illustrator 16.0.0, SVG Export Plug-In . SVG Version: 6.00 Build 0)  -->
<!DOCTYPE svg PUBLIC "-//W3C//DTD SVG 1.1//EN" "http://www.w3.org/Graphics/SVG/1.1/DTD/svg11.dtd">
<svg version="1.1" id="Calque_1" xmlns="http://www.w3.org/2000/svg" xmlns:xlink="http://www.w3.org/1999/xlink" x="0px" y="0px"
	 width="2267.72px" height="2267.72px" viewBox="0 0 2267.72 2267.72" enable-background="new 0 0 2267.72 2267.72"
	 xml:space="preserve">
<polygon fill="#161616" points="210.315,1746.626 227.071,1746.626 250.698,1817.146 274.324,1746.626 291.081,1746.626 
	291.081,1830.043 281.798,1830.043 281.798,1756.511 280.11,1756.511 255.881,1827.029 245.514,1827.029 221.285,1756.511 
	219.597,1756.511 219.597,1830.043 210.315,1830.043 "/>
<path fill="#161616" d="M322.303,1746.626h20.251l22.904,83.417h-9.162l-6.027-21.457h-35.681l-6.028,21.457h-9.161
	L322.303,1746.626z M316.637,1800.269h31.583l-12.658-45.687h-6.268L316.637,1800.269z"/>
<g>
	<defs>
		<rect id="SVGID_1_" width="2267.72" height="2267.72"/>
	</defs>
	<clipPath id="SVGID_2_">
		<use xlink:href="#SVGID_1_"  overflow="visible"/>
	</clipPath>
	<path clip-path="url(#SVGID_2_)" fill="#161616" d="M369.075,1788.696c0-27.484,7.111-43.275,32.908-43.275
		c25.797,0,33.03,15.55,33.03,43.275c0,28.689-7.113,42.552-33.03,42.552S369.075,1816.662,369.075,1788.696 M425.369,1788.696
		c0-22.542-4.34-35.078-23.386-35.078c-19.166,0-23.385,12.416-23.385,35.078c0,22.783,4.098,34.355,23.385,34.355
		C421.391,1823.052,425.369,1812.202,425.369,1788.696"/>
	<path clip-path="url(#SVGID_2_)" fill="#161616" d="M517.344,1763.864c0,11.451-5.545,16.756-18.564,22.782l18.323,18.082
		c1.326-3.857,3.014-13.742,3.376-19.527l8.799,0.12c-0.843,8.438-3.255,19.407-5.545,25.073l15.55,14.706l-5.424,6.027
		l-14.586-13.622c-5.545,9.162-14.465,13.742-25.917,13.742c-22.542,0-29.654-9.764-29.654-25.676
		c0-14.345,6.027-20.251,18.684-24.35c-6.027-6.871-6.871-10.97-6.871-17.961c0-10.608,7.595-17.721,20.975-17.721
		C510.594,1745.541,517.344,1752.653,517.344,1763.864 M513.005,1812.202l-25.435-25.314c-10.487,3.255-14.707,7.836-14.707,18.082
		c0,11.814,5.546,18.082,19.77,18.082C501.673,1823.052,509.148,1819.676,513.005,1812.202 M489.981,1777.848l3.496,3.375
		c10.608-4.581,14.826-8.197,14.826-16.756c0-7.232-3.495-11.09-11.813-11.09c-7.594,0-11.934,3.617-11.934,11.331
		C484.557,1769.168,485.762,1773.387,489.981,1777.848"/>
	<polygon clip-path="url(#SVGID_2_)" fill="#161616" points="560.018,1746.626 620.29,1746.626 620.29,1754.943 594.855,1754.943 
		594.855,1830.043 585.694,1830.043 585.694,1754.943 560.018,1754.943 	"/>
	<path clip-path="url(#SVGID_2_)" fill="#161616" d="M659.346,1822.208l0.242,7.111c0,0-13.742,1.929-23.507,1.929
		c-17.961,0-23.867-10.487-23.867-30.979c0-22.903,9.884-31.703,25.194-31.703c16.032,0,24.229,8.438,24.229,28.207l-0.482,6.871
		h-39.78c0,12.898,3.978,19.649,15.791,19.649C646.207,1823.293,659.346,1822.208,659.346,1822.208 M652.596,1796.411
		c0-14.947-4.581-20.252-15.188-20.252c-10.247,0-16.033,5.666-16.154,20.252H652.596z"/>
	<path clip-path="url(#SVGID_2_)" fill="#161616" d="M709.975,1770.373l-0.362,7.354c0,0-9.643-1.085-14.224-1.085
		c-13.863,0-17.6,6.026-17.6,22.18c0,17.84,2.773,24.35,17.721,24.35c4.58,0,14.224-1.085,14.224-1.085l0.362,7.475
		c0,0-11.211,1.687-16.756,1.687c-19.167,0-24.832-8.8-24.832-32.426c0-21.818,7.112-30.257,25.073-30.257
		C699.126,1768.565,709.975,1770.373,709.975,1770.373"/>
	<path clip-path="url(#SVGID_2_)" fill="#161616" d="M718.895,1830.043v-86.551h9.041v29.655c0,0,9.644-4.582,18.563-4.582
		c16.515,0,20.373,8.197,20.373,29.653v31.824h-9.041v-31.583c0-15.911-1.808-21.818-12.898-21.818
		c-8.559,0-16.997,3.616-16.997,3.616v49.785H718.895z"/>
	<path clip-path="url(#SVGID_2_)" fill="#161616" d="M778.926,1830.043v-60.271h8.92v4.219c0,0,9.765-5.425,18.684-5.425
		c16.636,0,20.373,8.197,20.373,29.653v31.824h-8.92v-31.583c0-15.911-1.809-21.818-13.019-21.818
		c-8.68,0-16.997,4.461-16.997,4.461v48.94H778.926z"/>
	<path clip-path="url(#SVGID_2_)" fill="#161616" d="M838.957,1745.662h9.041v10.486h-9.041V1745.662z M838.957,1769.771h9.041
		v60.272h-9.041V1769.771z"/>
	<path clip-path="url(#SVGID_2_)" fill="#161616" d="M858.002,1800.871c0-23.747,7.232-32.306,28.448-32.306
		c6.269,0,20.131,1.205,20.131,1.205v87.033h-8.92v-29.533c0,0-8.438,3.978-16.997,3.978
		C864.271,1831.248,858.002,1822.208,858.002,1800.871 M867.164,1800.871c0,15.068,3.857,22.301,14.465,22.301
		c8.318,0,16.033-3.496,16.033-3.496v-42.552c0,0-7.474-0.724-11.09-0.724C870.78,1776.4,867.164,1784.236,867.164,1800.871"/>
	<path clip-path="url(#SVGID_2_)" fill="#161616" d="M966.01,1769.771v60.272h-9.041v-4.219c0,0-9.041,5.425-17.841,5.425
		c-16.876,0-20.371-7.836-20.371-30.017v-31.462h9.04v31.342c0,16.635,1.447,22.06,12.657,22.06c8.921,0,16.515-4.46,16.515-4.46
		v-48.941H966.01z"/>
	<path clip-path="url(#SVGID_2_)" fill="#161616" d="M1023.147,1822.208l0.242,7.111c0,0-13.742,1.929-23.507,1.929
		c-17.961,0-23.867-10.487-23.867-30.979c0-22.903,9.884-31.703,25.194-31.703c16.032,0,24.229,8.438,24.229,28.207l-0.482,6.871
		h-39.78c0,12.898,3.978,19.649,15.791,19.649C1010.008,1823.293,1023.147,1822.208,1023.147,1822.208 M1016.397,1796.411
		c0-14.947-4.581-20.252-15.188-20.252c-10.247,0-16.033,5.666-16.154,20.252H1016.397z"/>
	<path clip-path="url(#SVGID_2_)" fill="#161616" d="M1074.861,1778.57c0,0-13.381-1.929-21.096-1.929
		c-7.473,0-13.139,2.05-13.139,9.161c0,5.666,2.894,7.233,15.671,9.403c15.068,2.531,20.733,5.545,20.733,17.237
		c0,14.104-8.92,18.805-23.385,18.805c-7.715,0-21.216-2.29-21.216-2.29l0.482-7.835c0,0,13.742,2.049,19.89,2.049
		c9.885,0,15.189-2.17,15.189-10.367c0-6.268-3.134-7.835-16.274-9.884c-13.621-2.17-20.131-4.702-20.131-16.756
		c0-13.26,10.729-17.6,21.698-17.6c9.041,0,21.819,2.29,21.819,2.29L1074.861,1778.57z"/>
	<path clip-path="url(#SVGID_2_)" fill="#161616" d="M1154.061,1830.043h-8.921v-4.099c0,0-9.282,5.304-18.323,5.304
		c-11.813,0-21.698-4.821-21.698-30.859c0-21.216,6.872-31.823,25.194-31.823c5.184,0,13.02,1.205,14.827,1.567v-26.641h8.921
		V1830.043z M1145.14,1818.712v-40.864c-1.929-0.362-9.402-1.447-14.345-1.447c-12.657,0-16.394,8.318-16.394,23.988
		c0,19.528,6.389,22.783,13.501,22.783C1136.461,1823.172,1145.14,1818.712,1145.14,1818.712"/>
	<path clip-path="url(#SVGID_2_)" fill="#161616" d="M1211.318,1822.208l0.241,7.111c0,0-13.742,1.929-23.507,1.929
		c-17.961,0-23.867-10.487-23.867-30.979c0-22.903,9.885-31.703,25.193-31.703c16.033,0,24.229,8.438,24.229,28.207l-0.481,6.871
		h-39.78c0,12.898,3.979,19.649,15.791,19.649C1198.179,1823.293,1211.318,1822.208,1211.318,1822.208 M1204.567,1796.411
		c0-14.947-4.58-20.252-15.188-20.252c-10.246,0-16.032,5.666-16.152,20.252H1204.567z"/>
	<path clip-path="url(#SVGID_2_)" fill="#161616" d="M1296.544,1828.717c-5.906,1.206-15.068,2.531-23.024,2.531
		c-24.953,0-30.497-15.188-30.497-42.672c0-28.208,5.425-43.155,30.497-43.155c8.56,0,17.721,1.567,23.024,2.651l-0.361,7.836
		c-5.425-0.964-15.188-2.17-21.698-2.17c-18.563,0-21.818,11.09-21.818,34.838c0,23.265,3.014,34.354,22.06,34.354
		c6.75,0,15.671-1.085,21.457-2.17L1296.544,1828.717z"/>
	<path clip-path="url(#SVGID_2_)" fill="#161616" d="M1304.982,1769.771h8.92v8.197c0,0,10.487-7.232,22.059-9.523v9.162
		c-11.33,2.29-21.938,8.196-21.938,8.196v44.24h-9.04V1769.771z"/>
	<path clip-path="url(#SVGID_2_)" fill="#161616" d="M1385.265,1822.208l0.241,7.112c0,0-13.742,1.928-23.506,1.928
		c-17.962,0-23.868-10.487-23.868-30.979c0-22.903,9.886-31.703,25.193-31.703c16.032,0,24.229,8.438,24.229,28.207l-0.482,6.871
		h-39.779c0,12.898,3.979,19.649,15.791,19.649C1372.125,1823.293,1385.265,1822.208,1385.265,1822.208 M1378.514,1796.411
		c0-14.947-4.58-20.252-15.188-20.252c-10.246,0-16.032,5.666-16.152,20.252H1378.514z M1375.621,1740.84l3.134,7.715l-26.64,10.246
		l-2.532-6.147L1375.621,1740.84z"/>
	<path clip-path="url(#SVGID_2_)" fill="#161616" d="M1439.51,1818.832c0.241,3.496,3.134,4.822,6.991,5.305l-0.361,7.111
		c-6.389,0-10.729-1.205-14.345-4.821c0,0-10.849,4.821-21.698,4.821c-10.97,0-16.997-6.268-16.997-18.443
		c0-11.572,6.027-16.635,18.443-17.84l18.926-1.809v-5.184c0-8.438-3.616-11.451-10.849-11.451c-8.438,0-22.783,1.566-22.783,1.566
		l-0.361-6.871c0,0,13.259-2.651,23.626-2.651c13.622,0,19.408,6.269,19.408,19.407V1818.832z M1412.628,1801.715
		c-7.353,0.724-10.246,4.219-10.246,10.85c0,6.991,3.014,11.09,9.161,11.09c8.921,0,18.926-3.737,18.926-3.737v-19.889
		L1412.628,1801.715z"/>
	<path clip-path="url(#SVGID_2_)" fill="#161616" d="M1464.703,1777.606v28.81c0,13.14,0.844,16.877,8.68,16.877
		c3.375,0,10.729-0.724,10.729-0.724l0.603,7.474c0,0-8.076,1.326-12.296,1.326c-12.416,0-16.635-4.701-16.635-22.06v-31.703h-8.559
		v-7.836h8.559v-18.443h8.92v18.443h19.167v7.836H1464.703z"/>
	<path clip-path="url(#SVGID_2_)" fill="#161616" d="M1490.26,1745.662h9.04v10.486h-9.04V1745.662z M1490.26,1769.771h9.04v60.272
		h-9.04V1769.771z"/>
	<path clip-path="url(#SVGID_2_)" fill="#161616" d="M1560.777,1799.184c0,21.939-5.426,32.064-25.797,32.064
		c-20.252,0-25.797-10.125-25.797-32.064c0-20.733,6.75-30.618,25.797-30.618C1554.147,1768.565,1560.777,1778.45,1560.777,1799.184
		 M1551.495,1799.184c0-16.756-3.616-22.783-16.515-22.783c-12.777,0-16.514,6.027-16.514,22.783
		c0,17.117,2.29,24.229,16.514,24.229C1549.326,1823.413,1551.495,1816.301,1551.495,1799.184"/>
	<path clip-path="url(#SVGID_2_)" fill="#161616" d="M1570.785,1830.043v-60.271h8.92v4.219c0,0,9.764-5.425,18.684-5.425
		c16.636,0,20.373,8.197,20.373,29.653v31.824h-8.921v-31.583c0-15.911-1.808-21.818-13.019-21.818
		c-8.68,0-16.997,4.461-16.997,4.461v48.94H1570.785z"/>
	<polygon clip-path="url(#SVGID_2_)" fill="#161616" points="1653.96,1746.626 1670.716,1746.626 1694.343,1817.146 
		1717.969,1746.626 1734.725,1746.626 1734.725,1830.043 1725.443,1830.043 1725.443,1756.511 1723.756,1756.511 1699.525,1827.029 
		1689.159,1827.029 1664.93,1756.511 1663.242,1756.511 1663.242,1830.043 1653.96,1830.043 	"/>
	<path clip-path="url(#SVGID_2_)" fill="#161616" d="M1795.48,1769.771v60.272h-9.041v-4.219c0,0-9.041,5.425-17.841,5.425
		c-16.876,0-20.372-7.836-20.372-30.017v-31.462h9.041v31.342c0,16.635,1.445,22.06,12.657,22.06c8.92,0,16.515-4.46,16.515-4.46
		v-48.941H1795.48z"/>
	<path clip-path="url(#SVGID_2_)" fill="#161616" d="M1848.159,1778.57c0,0-13.381-1.929-21.096-1.929
		c-7.474,0-13.14,2.05-13.14,9.161c0,5.666,2.894,7.233,15.671,9.403c15.068,2.531,20.734,5.545,20.734,17.237
		c0,14.104-8.921,18.805-23.386,18.805c-7.715,0-21.216-2.29-21.216-2.29l0.481-7.835c0,0,13.742,2.049,19.891,2.049
		c9.885,0,15.188-2.17,15.188-10.367c0-6.268-3.135-7.835-16.274-9.884c-13.621-2.17-20.13-4.702-20.13-16.756
		c0-13.26,10.729-17.6,21.697-17.6c9.041,0,21.819,2.29,21.819,2.29L1848.159,1778.57z"/>
	<path clip-path="url(#SVGID_2_)" fill="#161616" d="M1859.49,1745.662h9.041v10.486h-9.041V1745.662z M1859.49,1769.771h9.041
		v60.272h-9.041V1769.771z"/>
	<path clip-path="url(#SVGID_2_)" fill="#161616" d="M1920.004,1770.373l-0.361,7.354c0,0-9.645-1.085-14.225-1.085
		c-13.862,0-17.6,6.026-17.6,22.18c0,17.84,2.772,24.35,17.72,24.35c4.581,0,14.225-1.085,14.225-1.085l0.361,7.475
		c0,0-11.21,1.687-16.756,1.687c-19.166,0-24.832-8.8-24.832-32.426c0-21.818,7.112-30.257,25.073-30.257
		C1909.154,1768.565,1920.004,1770.373,1920.004,1770.373"/>
	<path clip-path="url(#SVGID_2_)" fill="#161616" d="M1971.476,1818.832c0.241,3.496,3.134,4.822,6.991,5.305l-0.361,7.111
		c-6.389,0-10.729-1.205-14.345-4.821c0,0-10.849,4.821-21.698,4.821c-10.97,0-16.996-6.268-16.996-18.443
		c0-11.572,6.026-16.635,18.442-17.84l18.926-1.809v-5.184c0-8.438-3.616-11.451-10.849-11.451c-8.438,0-22.783,1.566-22.783,1.566
		l-0.361-6.871c0,0,13.26-2.651,23.627-2.651c13.621,0,19.407,6.269,19.407,19.407V1818.832z M1944.594,1801.715
		c-7.354,0.724-10.246,4.219-10.246,10.85c0,6.991,3.014,11.09,9.161,11.09c8.921,0,18.926-3.737,18.926-3.737v-19.889
		L1944.594,1801.715z"/>
	<rect x="1985.338" y="1743.491" clip-path="url(#SVGID_2_)" fill="#161616" width="9.041" height="86.552"/>
	<path clip-path="url(#SVGID_2_)" fill="#161616" d="M2052.24,1822.208l0.241,7.111c0,0-13.742,1.929-23.507,1.929
		c-17.961,0-23.867-10.487-23.867-30.979c0-22.903,9.885-31.703,25.193-31.703c16.033,0,24.229,8.438,24.229,28.207l-0.481,6.871
		h-39.78c0,12.898,3.979,19.649,15.791,19.649C2039.101,1823.293,2052.24,1822.208,2052.24,1822.208 M2045.489,1796.411
		c0-14.947-4.58-20.252-15.188-20.252c-10.246,0-16.032,5.666-16.152,20.252H2045.489z"/>
	<path clip-path="url(#SVGID_2_)" fill="#161616" d="M322.141,1629.252h-39.677l-14.57,63.856h-30.068l52.697-228.457h23.249
		l53.317,228.457H336.71L322.141,1629.252z M289.283,1600.113h26.039l-13.019-56.105L289.283,1600.113z"/>
	<polygon clip-path="url(#SVGID_2_)" fill="#161616" points="357.796,1464.342 487.06,1464.342 487.06,1493.79 437.151,1493.79 
		437.151,1692.799 407.703,1692.799 407.703,1493.79 357.796,1493.79 	"/>
	<polygon clip-path="url(#SVGID_2_)" fill="#161616" points="572.611,1564.156 572.611,1464.651 602.059,1464.651 602.059,1693.108 
		572.611,1693.108 572.611,1593.604 528.593,1593.604 528.593,1693.108 499.455,1693.108 499.455,1464.651 528.593,1464.651 
		528.593,1564.156 	"/>
	<polygon clip-path="url(#SVGID_2_)" fill="#161616" points="695.671,1548.347 742.168,1464.651 775.646,1464.651 710.24,1582.444 
		710.24,1693.108 681.102,1693.108 681.102,1582.444 616.005,1464.651 649.483,1464.651 	"/>
	<path clip-path="url(#SVGID_2_)" fill="#161616" d="M886.926,1692.799h-29.449v-67.576c0-20.149-9.609-30.068-29.138-30.068H810.05
		v97.645h-29.138v-228.457h47.427c39.368,0,57.967,22.628,57.967,65.096c0,21.079-4.65,37.198-13.639,48.048
		c-0.31,0.31-0.93,0.93-1.241,1.55c-0.619,0.62-1.239,1.239-1.859,1.55c11.159,10.85,17.359,25.729,17.359,44.638V1692.799z
		 M810.05,1565.706h18.289c7.75,0,13.329-0.931,16.429-2.79c2.79-1.86,4.65-3.41,5.58-4.34c4.65-5.89,6.82-15.499,6.82-29.139
		c0-15.188-2.48-24.179-7.13-29.448c-4.96-4.96-12.09-6.199-21.699-6.199H810.05V1565.706z"/>
	<polygon clip-path="url(#SVGID_2_)" fill="#F5A521" points="1003.166,1464.651 1003.166,1493.79 937.76,1493.79 937.76,1564.156 
		1003.166,1564.156 1003.166,1593.294 937.76,1593.294 937.76,1693.108 908.622,1693.108 908.622,1464.651 	"/>
	<path clip-path="url(#SVGID_2_)" fill="#F5A521" d="M1023,1529.438c0-20.148,4.34-35.958,13.019-47.117
		c3.41-4.029,8.059-8.369,14.879-12.089c6.82-3.41,15.189-5.89,26.349-5.89c22.318,0,34.718,9.609,41.227,17.979
		c8.68,11.159,13.019,26.969,13.019,47.117v98.265c0,20.148-4.339,35.958-13.019,47.117c-6.509,8.37-18.909,17.979-41.227,17.979
		c-22.009,0-34.718-9.609-41.228-17.979c-8.679-11.159-13.019-26.969-13.019-47.117V1529.438z M1052.139,1627.702
		c0,18.289,4.03,26.969,9.3,31.309c5.269,4.339,11.159,4.649,15.809,4.649c4.03,0,10.539-0.311,15.809-4.649
		c5.27-4.34,9.299-13.02,9.299-31.309v-98.265c0-17.669-4.029-26.968-9.299-31.308c-5.27-4.341-11.779-4.341-15.809-4.341
		c-4.65,0-10.54,0-15.809,4.34c-5.27,4.341-9.3,13.64-9.3,31.309V1627.702z"/>
	<path clip-path="url(#SVGID_2_)" fill="#F5A521" d="M1253.624,1692.799h-29.448v-67.576c0-20.149-9.609-30.068-29.138-30.068
		h-18.289v97.645h-29.139v-228.457h47.428c39.367,0,57.966,22.628,57.966,65.096c0,21.079-4.65,37.198-13.639,48.048
		c-0.311,0.31-0.93,0.93-1.24,1.55c-0.62,0.62-1.24,1.239-1.859,1.55c11.159,10.85,17.358,25.729,17.358,44.638V1692.799z
		 M1176.749,1565.706h18.289c7.749,0,13.329-0.931,16.429-2.79c2.79-1.86,4.649-3.41,5.58-4.34
		c4.649-5.89,6.819-15.499,6.819-29.139c0-15.188-2.48-24.179-7.13-29.448c-4.96-4.96-12.09-6.199-21.698-6.199h-18.289V1565.706z"
		/>
	<polygon clip-path="url(#SVGID_2_)" fill="#F5A521" points="1336.695,1692.799 1305.077,1583.375 1305.077,1692.799 
		1275.938,1692.799 1275.938,1464.342 1301.667,1464.342 1347.854,1625.223 1393.731,1464.342 1419.46,1464.342 1419.46,1692.799 
		1390.322,1692.799 1390.322,1583.375 1358.704,1692.799 	"/>
	<path clip-path="url(#SVGID_2_)" fill="#F5A521" d="M1524.861,1629.252h-39.678l-14.569,63.856h-30.068l52.697-228.457h23.248
		l53.317,228.457h-30.378L1524.861,1629.252z M1492.003,1600.113h26.038l-13.019-56.105L1492.003,1600.113z"/>
	<polygon clip-path="url(#SVGID_2_)" fill="#F5A521" points="1560.509,1464.342 1689.771,1464.342 1689.771,1493.79 
		1639.863,1493.79 1639.863,1692.799 1610.416,1692.799 1610.416,1493.79 1560.509,1493.79 	"/>
	<rect x="1711.467" y="1464.651" clip-path="url(#SVGID_2_)" fill="#F5A521" width="29.139" height="228.457"/>
	<path clip-path="url(#SVGID_2_)" fill="#F5A521" d="M1763.852,1529.438c0-20.148,4.34-35.958,13.02-47.117
		c3.409-4.029,8.059-8.369,14.879-12.089c6.819-3.41,15.189-5.89,26.348-5.89c22.319,0,34.719,9.609,41.229,17.979
		c8.68,11.159,13.02,26.969,13.02,47.117v98.265c0,20.148-4.34,35.958-13.02,47.117c-6.51,8.37-18.909,17.979-41.229,17.979
		c-22.008,0-34.717-9.609-41.227-17.979c-8.68-11.159-13.02-26.969-13.02-47.117V1529.438z M1792.99,1627.702
		c0,18.289,4.029,26.969,9.299,31.309c5.271,4.339,11.16,4.649,15.809,4.649c4.03,0,10.539-0.311,15.811-4.649
		c5.27-4.34,9.299-13.02,9.299-31.309v-98.265c0-17.669-4.029-26.968-9.3-31.308c-5.271-4.341-11.779-4.341-15.81-4.341
		c-4.648,0-10.538,0-15.809,4.34c-5.27,4.341-9.299,13.64-9.299,31.309V1627.702z"/>
	<polygon clip-path="url(#SVGID_2_)" fill="#F5A521" points="1973.088,1692.799 1917.291,1554.546 1917.291,1692.799 
		1888.152,1692.799 1888.152,1464.342 1912.641,1464.342 1968.438,1602.594 1968.438,1464.342 1997.886,1464.342 1997.886,1692.799 
			"/>
	
		<path clip-path="url(#SVGID_2_)" fill="none" stroke="#000000" stroke-width="6.314" stroke-linecap="round" stroke-linejoin="round" stroke-miterlimit="10" d="
		M1125.331,404.931l-166.423,607.211L1125.331,404.931z"/>
	<polygon clip-path="url(#SVGID_2_)" fill-rule="evenodd" clip-rule="evenodd" fill="#F5A521" points="571.959,1368.513 
		958.581,1012.701 1685.451,1368.388 	"/>
	
		<polygon clip-path="url(#SVGID_2_)" fill="none" stroke="#000000" stroke-width="6.314" stroke-linecap="round" stroke-linejoin="round" stroke-miterlimit="10" points="
		571.959,1368.513 958.581,1012.701 1685.451,1368.388 	"/>
	
		<polyline clip-path="url(#SVGID_2_)" fill="none" stroke="#000000" stroke-width="6.314" stroke-linecap="round" stroke-linejoin="round" stroke-miterlimit="10" points="
		572.436,1366.596 1125.283,403.852 1684.43,1366.22 	"/>
</g>
</svg>
