<?xml version="1.0" encoding="utf-8"?>
<!-- Generator: Adobe Illustrator 17.0.0, SVG Export Plug-In . SVG Version: 6.00 Build 0)  -->
<!DOCTYPE svg PUBLIC "-//W3C//DTD SVG 1.1//EN" "http://www.w3.org/Graphics/SVG/1.1/DTD/svg11.dtd">
<svg version="1.1" id="Calque_1" xmlns="http://www.w3.org/2000/svg" xmlns:xlink="http://www.w3.org/1999/xlink" x="0px" y="0px"
	 width="335.412px" height="264.85px" viewBox="0 0 335.412 264.85" enable-background="new 0 0 335.412 264.85"
	 xml:space="preserve">
<g>
	<g>
		<polygon fill="#F9B03C" points="61.776,184.117 273.501,184.117 134.327,116.501 		"/>
		<polygon fill="none" stroke="#000000" stroke-linecap="round" stroke-linejoin="round" stroke-miterlimit="10" points="
			61.776,184.117 167.461,0.5 273.636,184.111 		"/>
		<polygon fill="none" stroke="#000000" stroke-linecap="round" stroke-linejoin="round" stroke-miterlimit="10" points="
			134.327,116.501 167.324,0.5 60.699,184.117 		"/>
		<polygon fill="none" stroke="#000000" stroke-linecap="round" stroke-linejoin="round" stroke-miterlimit="10" points="
			134.327,116.501 167.327,0.5 273.501,184.114 		"/>
	</g>
	<g>
		<path fill="#010202" d="M15.918,229.572H8.427l-2.751,12.055H0l9.949-43.132h4.389l10.066,43.132h-5.735L15.918,229.572z
			 M9.714,224.071h4.916l-2.458-10.594L9.714,224.071z"/>
		<path fill="#010202" d="M22.928,198.497h24.404v5.559h-9.422v37.571h-5.56v-37.571h-9.422V198.497z"/>
		<path fill="#010202" d="M63.723,217.282v-18.786h5.56v43.132h-5.56v-18.786h-8.31v18.786h-5.501v-43.132h5.501v18.786H63.723z"/>
		<path fill="#010202" d="M87.136,214.298l8.779-15.802h6.32l-12.348,22.239v20.893h-5.501v-20.893l-12.29-22.239h6.321
			L87.136,214.298z"/>
		<path fill="#010202" d="M123.483,241.627h-5.56v-12.757c0-3.805-1.813-5.677-5.5-5.677h-3.453v18.434h-5.501v-43.13h8.954
			c7.432,0,10.943,4.272,10.943,12.29c0,3.979-0.878,7.022-2.575,9.07c-0.058,0.058-0.175,0.175-0.234,0.292
			c-0.117,0.118-0.234,0.235-0.351,0.293c2.107,2.049,3.277,4.857,3.277,8.428V241.627z M108.97,217.634h3.453
			c1.463,0,2.516-0.176,3.101-0.527c0.526-0.351,0.878-0.644,1.053-0.82c0.878-1.112,1.287-2.925,1.287-5.5
			c0-2.869-0.468-4.566-1.346-5.56c-0.936-0.936-2.282-1.171-4.096-1.171h-3.453V217.634z"/>
		<path fill="#F9B03C" d="M145.725,198.496v5.501h-12.348v13.285h12.348v5.501h-12.348v18.844h-5.501v-43.132H145.725z"/>
		<path fill="#F9B03C" d="M149.65,210.788c0-3.805,0.819-6.789,2.458-8.896c0.643-0.761,1.521-1.581,2.809-2.283
			c1.287-0.644,2.868-1.112,4.974-1.112c4.213,0,6.555,1.813,7.783,3.395c1.639,2.107,2.458,5.091,2.458,8.896v18.551
			c0,3.803-0.819,6.789-2.458,8.896c-1.229,1.58-3.57,3.393-7.783,3.393c-4.156,0-6.555-1.813-7.783-3.393
			c-1.639-2.107-2.458-5.093-2.458-8.896V210.788z M155.151,229.339c0,3.452,0.761,5.091,1.756,5.911
			c0.995,0.819,2.107,0.878,2.984,0.878c0.761,0,1.99-0.059,2.984-0.878c0.995-0.82,1.756-2.459,1.756-5.911v-18.551
			c0-3.337-0.761-5.093-1.756-5.911c-0.995-0.82-2.224-0.82-2.984-0.82c-0.878,0-1.99,0-2.984,0.82
			c-0.995,0.819-1.756,2.574-1.756,5.911V229.339z"/>
		<path fill="#F9B03C" d="M193.371,241.627h-5.56v-12.757c0-3.805-1.813-5.677-5.5-5.677h-3.454v18.434h-5.501v-43.13h8.955
			c7.432,0,10.943,4.272,10.943,12.29c0,3.979-0.878,7.022-2.576,9.07c-0.058,0.058-0.175,0.175-0.234,0.292
			c-0.117,0.118-0.234,0.235-0.351,0.293c2.107,2.049,3.278,4.857,3.278,8.428V241.627z M178.857,217.634h3.454
			c1.463,0,2.515-0.176,3.101-0.527c0.525-0.351,0.878-0.644,1.053-0.82c0.878-1.112,1.288-2.925,1.288-5.5
			c0-2.869-0.468-4.566-1.346-5.56c-0.937-0.936-2.283-1.171-4.096-1.171h-3.454V217.634z"/>
		<path fill="#F9B03C" d="M209.234,241.627l-5.969-20.658v20.658h-5.501v-43.13h4.857l8.72,30.374l8.662-30.374h4.857v43.13h-5.501
			V220.97l-5.969,20.658H209.234z"/>
		<path fill="#F9B03C" d="M245.173,229.572h-7.491l-2.751,12.055h-5.676l9.948-43.132h4.389l10.065,43.132h-5.735L245.173,229.572z
			 M238.97,224.071h4.916l-2.459-10.594L238.97,224.071z"/>
		<path fill="#F9B03C" d="M252.183,198.497h24.403v5.559h-9.421v37.571h-5.56v-37.571h-9.421V198.497z"/>
		<path fill="#F9B03C" d="M286.424,241.627h-5.501v-43.132h5.501V241.627z"/>
		<path fill="#F9B03C" d="M290.989,210.788c0-3.805,0.82-6.789,2.459-8.896c0.642-0.761,1.52-1.581,2.808-2.283
			c1.288-0.644,2.868-1.112,4.974-1.112c4.213,0,6.555,1.813,7.784,3.395c1.639,2.107,2.457,5.091,2.457,8.896v18.551
			c0,3.803-0.819,6.789-2.457,8.896c-1.229,1.58-3.571,3.393-7.784,3.393c-4.156,0-6.554-1.813-7.782-3.393
			c-1.639-2.107-2.459-5.093-2.459-8.896V210.788z M296.49,229.339c0,3.452,0.761,5.091,1.756,5.911
			c0.995,0.819,2.107,0.878,2.984,0.878c0.761,0,1.99-0.059,2.984-0.878c0.995-0.82,1.756-2.459,1.756-5.911v-18.551
			c0-3.337-0.761-5.093-1.756-5.911c-0.995-0.82-2.224-0.82-2.984-0.82c-0.878,0-1.99,0-2.984,0.82
			c-0.995,0.819-1.756,2.574-1.756,5.911V229.339z"/>
		<path fill="#F9B03C" d="M330.729,241.627l-10.533-26.1v26.1h-5.501v-43.13h4.623l10.533,26.101v-26.101h5.56v43.13H330.729z"/>
	</g>
	<g>
		<path d="M1.473,250.176v11.342H0v-11.342H1.473z"/>
		<path d="M4.175,255.576c0-0.839-0.018-1.53-0.068-2.203h1.32l0.086,1.346h0.034c0.407-0.774,1.356-1.53,2.712-1.53
			c1.137,0,2.9,0.673,2.9,3.464v4.865H9.668v-4.694c0-1.315-0.493-2.408-1.899-2.408c-0.986,0-1.747,0.689-2.003,1.515
			c-0.068,0.184-0.099,0.438-0.099,0.691v4.896H4.175V255.576z"/>
		<path d="M13.747,261.518V254.5h-1.153v-1.126h1.153v-0.386c0-1.144,0.256-2.19,0.949-2.845c0.558-0.538,1.304-0.759,2-0.759
			c0.524,0,0.983,0.119,1.27,0.238l-0.203,1.144c-0.219-0.104-0.524-0.186-0.949-0.186c-1.27,0-1.591,1.111-1.591,2.356v0.438h1.982
			v1.126h-1.982v7.018H13.747z"/>
		<path d="M25.754,257.378c0,3.013-2.102,4.323-4.084,4.323c-2.222,0-3.933-1.615-3.933-4.189c0-2.726,1.797-4.323,4.069-4.323
			C24.164,253.19,25.754,254.888,25.754,257.378z M19.245,257.461c0,1.786,1.035,3.133,2.493,3.133c1.424,0,2.493-1.331,2.493-3.164
			c0-1.382-0.696-3.133-2.459-3.133S19.245,255.913,19.245,257.461z"/>
		<path d="M27.648,255.913c0-0.958-0.018-1.781-0.068-2.54h1.304l0.052,1.597h0.068c0.37-1.093,1.27-1.781,2.269-1.781
			c0.172,0,0.289,0.016,0.425,0.049v1.395c-0.154-0.031-0.305-0.049-0.509-0.049c-1.051,0-1.797,0.79-2,1.903
			c-0.034,0.202-0.068,0.435-0.068,0.689v4.342h-1.474V255.913z"/>
		<path d="M33.266,255.576c0-0.839-0.018-1.53-0.068-2.203h1.304l0.068,1.313h0.052c0.456-0.774,1.221-1.496,2.577-1.496
			c1.116,0,1.966,0.673,2.321,1.631h0.034c0.253-0.456,0.576-0.808,0.915-1.061c0.49-0.368,1.033-0.57,1.815-0.57
			c1.085,0,2.694,0.704,2.694,3.531v4.797H43.52v-4.611c0-1.564-0.576-2.506-1.779-2.506c-0.85,0-1.51,0.621-1.763,1.346
			c-0.068,0.202-0.12,0.471-0.12,0.74v5.03h-1.458v-4.88c0-1.294-0.576-2.237-1.713-2.237c-0.931,0-1.609,0.74-1.847,1.481
			c-0.083,0.217-0.12,0.471-0.12,0.722v4.914h-1.455V255.576z"/>
		<path d="M51.965,261.518l-0.12-1.028h-0.052c-0.456,0.642-1.338,1.212-2.509,1.212c-1.659,0-2.509-1.16-2.509-2.338
			c0-1.97,1.763-3.047,4.934-3.029v-0.168c0-0.673-0.188-1.885-1.865-1.885c-0.764,0-1.56,0.236-2.136,0.606l-0.339-0.976
			c0.678-0.438,1.661-0.722,2.697-0.722c2.509,0,3.119,1.698,3.119,3.329v3.047c0,0.707,0.031,1.395,0.136,1.952H51.965z
			 M51.744,257.363c-1.627-0.036-3.477,0.251-3.477,1.833c0,0.958,0.647,1.414,1.408,1.414c1.069,0,1.747-0.673,1.982-1.362
			c0.052-0.153,0.086-0.321,0.086-0.471V257.363z"/>
		<path d="M57.328,251.036v2.338h2.139v1.126h-2.139v4.393c0,1.01,0.289,1.582,1.121,1.582c0.389,0,0.678-0.052,0.863-0.101
			l0.068,1.111c-0.289,0.119-0.746,0.202-1.322,0.202c-0.694,0-1.254-0.217-1.612-0.621c-0.423-0.44-0.574-1.162-0.574-2.123V254.5
			h-1.273v-1.126h1.273v-1.952L57.328,251.036z"/>
		<path d="M62.81,251.085c0.018,0.505-0.355,0.909-0.949,0.909c-0.524,0-0.897-0.404-0.897-0.909c0-0.52,0.391-0.924,0.934-0.924
			C62.455,250.161,62.81,250.564,62.81,251.085z M61.151,261.518v-8.145h1.492v8.145H61.151z"/>
		<path d="M70.717,260.257h-0.037c-0.438,0.808-1.356,1.445-2.676,1.445c-1.917,0-3.477-1.647-3.477-4.121
			c0-3.045,1.985-4.391,3.711-4.391c1.273,0,2.12,0.621,2.527,1.414h0.034l0.052-1.23h1.406c-0.034,0.691-0.05,1.395-0.05,2.239
			v9.237h-1.492V260.257z M70.717,256.672c0-0.202-0.018-0.438-0.068-0.624c-0.222-0.906-1.017-1.683-2.139-1.683
			c-1.541,0-2.472,1.297-2.472,3.133c0,1.615,0.777,3.029,2.423,3.029c0.968,0,1.797-0.59,2.136-1.615
			c0.068-0.202,0.12-0.489,0.12-0.709V256.672z"/>
		<path d="M81.543,259.297c0,0.841,0.018,1.582,0.068,2.221h-1.322l-0.083-1.328h-0.037c-0.389,0.655-1.252,1.512-2.712,1.512
			c-1.288,0-2.83-0.704-2.83-3.567v-4.761h1.492v4.51c0,1.548,0.475,2.591,1.831,2.591c0.999,0,1.695-0.689,1.966-1.346
			c0.086-0.217,0.136-0.487,0.136-0.756v-4.999h1.492V259.297z"/>
		<path d="M84.858,257.715c0.034,2.004,1.322,2.827,2.814,2.827c1.067,0,1.713-0.186,2.272-0.419l0.256,1.059
			c-0.527,0.236-1.424,0.505-2.731,0.505c-2.527,0-4.035-1.649-4.035-4.106c0-2.457,1.458-4.391,3.849-4.391
			c2.676,0,3.39,2.338,3.39,3.837c0,0.3-0.037,0.539-0.052,0.689H84.858z M89.232,256.653c0.018-0.942-0.389-2.405-2.068-2.405
			c-1.507,0-2.17,1.38-2.29,2.405H89.232z"/>
		<path d="M96.13,255.576c0-0.839-0.018-1.53-0.068-2.203h1.304l0.068,1.313h0.052c0.456-0.774,1.221-1.496,2.577-1.496
			c1.116,0,1.966,0.673,2.321,1.631h0.034c0.253-0.456,0.576-0.808,0.915-1.061c0.49-0.368,1.033-0.57,1.815-0.57
			c1.085,0,2.694,0.704,2.694,3.531v4.797h-1.458v-4.611c0-1.564-0.576-2.506-1.779-2.506c-0.85,0-1.51,0.621-1.763,1.346
			c-0.068,0.202-0.12,0.471-0.12,0.74v5.03h-1.458v-4.88c0-1.294-0.576-2.237-1.713-2.237c-0.931,0-1.609,0.74-1.847,1.481
			c-0.083,0.217-0.12,0.471-0.12,0.722v4.914H96.13V255.576z"/>
		<path d="M117.148,259.297c0,0.841,0.018,1.582,0.068,2.221h-1.322l-0.083-1.328h-0.037c-0.389,0.655-1.252,1.512-2.712,1.512
			c-1.288,0-2.83-0.704-2.83-3.567v-4.761h1.492v4.51c0,1.548,0.475,2.591,1.831,2.591c0.999,0,1.695-0.689,1.966-1.346
			c0.086-0.217,0.136-0.487,0.136-0.756v-4.999h1.492V259.297z"/>
		<path d="M119.43,260.003c0.443,0.285,1.221,0.59,1.966,0.59c1.085,0,1.596-0.538,1.596-1.212c0-0.709-0.425-1.095-1.528-1.499
			c-1.474-0.52-2.17-1.328-2.17-2.307c0-1.31,1.069-2.387,2.832-2.387c0.829,0,1.56,0.233,2.019,0.502l-0.376,1.077
			c-0.321-0.202-0.913-0.471-1.677-0.471c-0.882,0-1.374,0.507-1.374,1.113c0,0.673,0.493,0.973,1.56,1.377
			c1.424,0.538,2.154,1.248,2.154,2.459c0,1.429-1.119,2.439-3.067,2.439c-0.9,0-1.732-0.217-2.306-0.554L119.43,260.003z"/>
		<path d="M128.016,251.085c0.018,0.505-0.355,0.909-0.949,0.909c-0.524,0-0.897-0.404-0.897-0.909c0-0.52,0.391-0.924,0.934-0.924
			C127.661,250.161,128.016,250.564,128.016,251.085z M126.357,261.518v-8.145h1.492v8.145H126.357z"/>
		<path d="M136.177,261.215c-0.389,0.202-1.254,0.471-2.355,0.471c-2.478,0-4.087-1.667-4.087-4.158
			c0-2.506,1.729-4.323,4.408-4.323c0.882,0,1.661,0.217,2.068,0.419l-0.339,1.144c-0.355-0.202-0.915-0.386-1.729-0.386
			c-1.88,0-2.898,1.38-2.898,3.078c0,1.885,1.221,3.047,2.848,3.047c0.845,0,1.406-0.22,1.831-0.404L136.177,261.215z"/>
		<path d="M142.475,261.518l-0.12-1.028h-0.052c-0.456,0.642-1.338,1.212-2.509,1.212c-1.659,0-2.509-1.16-2.509-2.338
			c0-1.97,1.763-3.047,4.934-3.029v-0.168c0-0.673-0.188-1.885-1.865-1.885c-0.764,0-1.56,0.236-2.136,0.606l-0.339-0.976
			c0.678-0.438,1.661-0.722,2.697-0.722c2.509,0,3.119,1.698,3.119,3.329v3.047c0,0.707,0.031,1.395,0.136,1.952H142.475z
			 M142.253,257.363c-1.627-0.036-3.477,0.251-3.477,1.833c0,0.958,0.647,1.414,1.408,1.414c1.069,0,1.747-0.673,1.982-1.362
			c0.052-0.153,0.086-0.321,0.086-0.471V257.363z"/>
		<path d="M146.111,249.57h1.492v11.948h-1.492V249.57z"/>
		<path d="M150.949,257.715c0.034,2.004,1.322,2.827,2.814,2.827c1.069,0,1.711-0.186,2.272-0.419l0.253,1.059
			c-0.524,0.236-1.424,0.505-2.728,0.505c-2.525,0-4.035-1.649-4.035-4.106c0-2.457,1.458-4.391,3.847-4.391
			c2.681,0,3.39,2.338,3.39,3.837c0,0.3-0.031,0.539-0.05,0.689H150.949z M155.322,256.653c0.016-0.942-0.391-2.405-2.068-2.405
			c-1.51,0-2.17,1.38-2.287,2.405H155.322z"/>
		<path d="M169.422,261.518c-0.323-0.318-0.626-0.639-1.069-1.111c-0.981,0.909-2.084,1.294-3.338,1.294
			c-2.222,0-3.51-1.481-3.51-3.179c0-1.548,0.934-2.61,2.238-3.314v-0.052c-0.592-0.74-0.949-1.564-0.949-2.371
			c0-1.382,1.001-2.796,2.9-2.796c1.424,0,2.525,0.942,2.525,2.408c0,1.196-0.694,2.138-2.509,3.029v0.052
			c0.968,1.108,2.053,2.356,2.78,3.164c0.527-0.792,0.882-1.885,1.103-3.316h1.356c-0.305,1.784-0.795,3.197-1.646,4.191
			c0.61,0.637,1.205,1.279,1.883,2.001H169.422z M167.625,259.566c-0.678-0.74-1.948-2.12-3.221-3.567
			c-0.61,0.386-1.476,1.111-1.476,2.307c0,1.294,0.968,2.289,2.342,2.289C166.25,260.594,167.082,260.154,167.625,259.566z
			 M164.148,252.651c0,0.808,0.376,1.429,0.866,2.035c1.153-0.658,1.899-1.263,1.899-2.221c0-0.689-0.391-1.465-1.322-1.465
			C164.641,250.999,164.148,251.776,164.148,252.651z"/>
		<path d="M177.882,251.036v2.338h2.133v1.126h-2.133v4.393c0,1.01,0.287,1.582,1.116,1.582c0.391,0,0.678-0.052,0.866-0.101
			l0.068,1.111c-0.287,0.119-0.746,0.202-1.322,0.202c-0.696,0-1.254-0.217-1.609-0.621c-0.425-0.44-0.579-1.162-0.579-2.123V254.5
			h-1.27v-1.126h1.27v-1.952L177.882,251.036z"/>
		<path d="M182.431,257.715c0.034,2.004,1.322,2.827,2.814,2.827c1.067,0,1.713-0.186,2.272-0.419l0.256,1.059
			c-0.527,0.236-1.424,0.505-2.731,0.505c-2.527,0-4.035-1.649-4.035-4.106c0-2.457,1.458-4.391,3.849-4.391
			c2.676,0,3.39,2.338,3.39,3.837c0,0.3-0.037,0.539-0.052,0.689H182.431z M186.804,256.653c0.018-0.942-0.389-2.405-2.068-2.405
			c-1.507,0-2.17,1.38-2.29,2.405H186.804z"/>
		<path d="M195.951,261.215c-0.391,0.202-1.254,0.471-2.358,0.471c-2.472,0-4.084-1.667-4.084-4.158
			c0-2.506,1.729-4.323,4.408-4.323c0.882,0,1.661,0.217,2.068,0.419l-0.339,1.144c-0.357-0.202-0.915-0.386-1.729-0.386
			c-1.883,0-2.9,1.38-2.9,3.078c0,1.885,1.221,3.047,2.848,3.047c0.85,0,1.408-0.22,1.831-0.404L195.951,261.215z"/>
		<path d="M197.708,249.57h1.492v5.082h0.031c0.24-0.422,0.61-0.79,1.069-1.043c0.441-0.254,0.965-0.419,1.526-0.419
			c1.103,0,2.866,0.673,2.866,3.482v4.846h-1.492v-4.678c0-1.313-0.493-2.423-1.899-2.423c-0.968,0-1.732,0.673-2.003,1.481
			c-0.083,0.202-0.099,0.419-0.099,0.707v4.914h-1.492V249.57z"/>
		<path d="M207.124,255.576c0-0.839-0.016-1.53-0.068-2.203h1.325l0.083,1.346h0.034c0.407-0.774,1.356-1.53,2.712-1.53
			c1.135,0,2.898,0.673,2.898,3.464v4.865h-1.492v-4.694c0-1.315-0.49-2.408-1.899-2.408c-0.981,0-1.745,0.689-1.998,1.515
			c-0.068,0.184-0.104,0.438-0.104,0.691v4.896h-1.492V255.576z"/>
		<path d="M218.208,251.085c0.016,0.505-0.357,0.909-0.949,0.909c-0.527,0-0.9-0.404-0.9-0.909c0-0.52,0.389-0.924,0.931-0.924
			C217.85,250.161,218.208,250.564,218.208,251.085z M216.544,261.518v-8.145h1.492v8.145H216.544z"/>
		<path d="M226.11,260.257h-0.031c-0.443,0.808-1.356,1.445-2.681,1.445c-1.914,0-3.474-1.647-3.474-4.121
			c0-3.045,1.982-4.391,3.714-4.391c1.27,0,2.118,0.621,2.525,1.414h0.034l0.05-1.23h1.408c-0.034,0.691-0.052,1.395-0.052,2.239
			v9.237h-1.492V260.257z M226.11,256.672c0-0.202-0.016-0.438-0.068-0.624c-0.219-0.906-1.017-1.683-2.133-1.683
			c-1.544,0-2.478,1.297-2.478,3.133c0,1.615,0.782,3.029,2.425,3.029c0.965,0,1.797-0.59,2.136-1.615
			c0.068-0.202,0.117-0.489,0.117-0.709V256.672z"/>
		<path d="M236.936,259.297c0,0.841,0.018,1.582,0.068,2.221h-1.322l-0.083-1.328h-0.037c-0.389,0.655-1.252,1.512-2.712,1.512
			c-1.288,0-2.83-0.704-2.83-3.567v-4.761h1.492v4.51c0,1.548,0.475,2.591,1.831,2.591c0.999,0,1.695-0.689,1.966-1.346
			c0.086-0.217,0.136-0.487,0.136-0.756v-4.999h1.492V259.297z"/>
		<path d="M240.254,257.715c0.034,2.004,1.322,2.827,2.814,2.827c1.069,0,1.711-0.186,2.272-0.419l0.253,1.059
			c-0.524,0.236-1.424,0.505-2.728,0.505c-2.525,0-4.035-1.649-4.035-4.106c0-2.457,1.458-4.391,3.847-4.391
			c2.681,0,3.39,2.338,3.39,3.837c0,0.3-0.031,0.539-0.05,0.689H240.254z M244.627,256.653c0.016-0.942-0.391-2.405-2.068-2.405
			c-1.51,0-2.17,1.38-2.287,2.405H244.627z"/>
		<path d="M247.72,260.003c0.443,0.285,1.221,0.59,1.966,0.59c1.085,0,1.596-0.538,1.596-1.212c0-0.709-0.425-1.095-1.528-1.499
			c-1.474-0.52-2.17-1.328-2.17-2.307c0-1.31,1.069-2.387,2.832-2.387c0.829,0,1.56,0.233,2.019,0.502l-0.376,1.077
			c-0.321-0.202-0.913-0.471-1.677-0.471c-0.882,0-1.374,0.507-1.374,1.113c0,0.673,0.493,0.973,1.56,1.377
			c1.424,0.538,2.154,1.248,2.154,2.459c0,1.429-1.119,2.439-3.067,2.439c-0.9,0-1.732-0.217-2.306-0.554L247.72,260.003z"/>
		<path d="M265.33,249.57v9.843c0,0.725,0.018,1.548,0.068,2.105h-1.338l-0.068-1.414h-0.034c-0.459,0.909-1.458,1.597-2.796,1.597
			c-1.985,0-3.51-1.665-3.51-4.137c-0.016-2.711,1.68-4.375,3.677-4.375c1.257,0,2.102,0.588,2.478,1.243h0.031v-4.862H265.33z
			 M263.838,256.69c0-0.186-0.016-0.44-0.068-0.624c-0.219-0.942-1.033-1.716-2.152-1.716c-1.541,0-2.459,1.346-2.459,3.148
			c0,1.647,0.814,3.011,2.425,3.011c1.001,0,1.914-0.655,2.186-1.768c0.052-0.202,0.068-0.404,0.068-0.637V256.69z"/>
		<path d="M268.647,257.715c0.034,2.004,1.322,2.827,2.814,2.827c1.067,0,1.713-0.186,2.272-0.419l0.256,1.059
			c-0.527,0.236-1.424,0.505-2.731,0.505c-2.527,0-4.035-1.649-4.035-4.106c0-2.457,1.458-4.391,3.849-4.391
			c2.676,0,3.39,2.338,3.39,3.837c0,0.3-0.036,0.539-0.052,0.689H268.647z M273.021,256.653c0.018-0.942-0.389-2.405-2.068-2.405
			c-1.507,0-2.17,1.38-2.29,2.405H273.021z"/>
		<path d="M285.767,261.215c-0.391,0.202-1.254,0.471-2.358,0.471c-2.472,0-4.084-1.667-4.084-4.158
			c0-2.506,1.729-4.323,4.408-4.323c0.882,0,1.661,0.217,2.068,0.419l-0.339,1.144c-0.357-0.202-0.915-0.386-1.729-0.386
			c-1.883,0-2.9,1.38-2.9,3.078c0,1.885,1.221,3.047,2.848,3.047c0.85,0,1.408-0.22,1.831-0.404L285.767,261.215z"/>
		<path d="M287.519,255.913c0-0.958-0.016-1.781-0.068-2.54h1.307l0.05,1.597h0.068c0.376-1.093,1.273-1.781,2.274-1.781
			c0.167,0,0.287,0.016,0.423,0.049v1.395c-0.151-0.031-0.305-0.049-0.509-0.049c-1.051,0-1.797,0.79-2,1.903
			c-0.034,0.202-0.068,0.435-0.068,0.689v4.342h-1.476V255.913z"/>
		<path d="M293.732,257.715c0.034,2.004,1.322,2.827,2.814,2.827c1.067,0,1.714-0.186,2.272-0.419l0.256,1.059
			c-0.527,0.236-1.424,0.505-2.731,0.505c-2.527,0-4.035-1.649-4.035-4.106c0-2.457,1.458-4.391,3.849-4.391
			c2.676,0,3.39,2.338,3.39,3.837c0,0.3-0.036,0.539-0.052,0.689H293.732z M298.105,256.653c0.018-0.942-0.389-2.405-2.068-2.405
			c-1.507,0-2.17,1.38-2.29,2.405H298.105z M298.463,249.855l-2.071,2.408h-1.067l1.492-2.408H298.463z"/>
		<path d="M305.948,261.518l-0.117-1.028h-0.05c-0.459,0.642-1.341,1.212-2.509,1.212c-1.664,0-2.509-1.16-2.509-2.338
			c0-1.97,1.763-3.047,4.932-3.029v-0.168c0-0.673-0.185-1.885-1.865-1.885c-0.762,0-1.56,0.236-2.136,0.606l-0.339-0.976
			c0.678-0.438,1.661-0.722,2.694-0.722c2.509,0,3.119,1.698,3.119,3.329v3.047c0,0.707,0.037,1.395,0.136,1.952H305.948z
			 M305.729,257.363c-1.627-0.036-3.474,0.251-3.474,1.833c0,0.958,0.642,1.414,1.406,1.414c1.067,0,1.745-0.673,1.985-1.362
			c0.05-0.153,0.083-0.321,0.083-0.471V257.363z"/>
		<path d="M311.315,251.036v2.338h2.133v1.126h-2.133v4.393c0,1.01,0.287,1.582,1.116,1.582c0.391,0,0.678-0.052,0.866-0.101
			l0.068,1.111c-0.287,0.119-0.746,0.202-1.322,0.202c-0.696,0-1.254-0.217-1.609-0.621c-0.425-0.44-0.579-1.162-0.579-2.123V254.5
			h-1.27v-1.126h1.27v-1.952L311.315,251.036z"/>
		<path d="M316.797,251.085c0.016,0.505-0.357,0.909-0.949,0.909c-0.527,0-0.9-0.404-0.9-0.909c0-0.52,0.389-0.924,0.931-0.924
			C316.44,250.161,316.797,250.564,316.797,251.085z M315.133,261.518v-8.145h1.492v8.145H315.133z"/>
		<path d="M326.531,257.378c0,3.013-2.102,4.323-4.084,4.323c-2.222,0-3.933-1.615-3.933-4.189c0-2.726,1.797-4.323,4.069-4.323
			C324.94,253.19,326.531,254.888,326.531,257.378z M320.021,257.461c0,1.786,1.035,3.133,2.493,3.133
			c1.424,0,2.493-1.331,2.493-3.164c0-1.382-0.696-3.133-2.459-3.133C320.785,254.298,320.021,255.913,320.021,257.461z"/>
		<path d="M328.424,255.576c0-0.839-0.016-1.53-0.068-2.203h1.325l0.083,1.346h0.034c0.407-0.774,1.356-1.53,2.712-1.53
			c1.134,0,2.898,0.673,2.898,3.464v4.865h-1.492v-4.694c0-1.315-0.49-2.408-1.899-2.408c-0.981,0-1.745,0.689-1.998,1.515
			c-0.068,0.184-0.104,0.438-0.104,0.691v4.896h-1.492V255.576z"/>
	</g>
</g>
</svg>
